<mxfile host="app.diagrams.net" agent="Mozilla/5.0 (Macintosh; Intel Mac OS X 10_15_7) AppleWebKit/537.36 (KHTML, like Gecko) Chrome/136.0.0.0 Safari/537.36" version="27.0.8">
  <diagram name="Page-1" id="f-pgesh5ZNu8k3brizg-">
    <mxGraphModel dx="1783" dy="958" grid="1" gridSize="10" guides="1" tooltips="1" connect="1" arrows="1" fold="1" page="1" pageScale="1" pageWidth="1169" pageHeight="827" math="0" shadow="0">
      <root>
        <mxCell id="0" />
        <mxCell id="1" parent="0" />
        <mxCell id="WIZIczAgmzSDIAD61xHs-3" value="Region us-east-2" style="points=[[0,0],[0.25,0],[0.5,0],[0.75,0],[1,0],[1,0.25],[1,0.5],[1,0.75],[1,1],[0.75,1],[0.5,1],[0.25,1],[0,1],[0,0.75],[0,0.5],[0,0.25]];outlineConnect=0;gradientColor=none;html=1;whiteSpace=wrap;fontSize=12;fontStyle=0;container=1;pointerEvents=0;collapsible=0;recursiveResize=0;shape=mxgraph.aws4.group;grIcon=mxgraph.aws4.group_region;strokeColor=#00A4A6;fillColor=none;verticalAlign=top;align=left;spacingLeft=30;fontColor=#147EBA;dashed=1;" vertex="1" parent="1">
          <mxGeometry x="115" y="154" width="738" height="520" as="geometry" />
        </mxCell>
        <mxCell id="WIZIczAgmzSDIAD61xHs-4" value="VPC (10.0.0.0/16)&lt;span style=&quot;background-color: transparent; color: light-dark(rgb(170, 183, 184), rgb(74, 85, 86));&quot;&gt;&amp;nbsp;&lt;/span&gt;" style="points=[[0,0],[0.25,0],[0.5,0],[0.75,0],[1,0],[1,0.25],[1,0.5],[1,0.75],[1,1],[0.75,1],[0.5,1],[0.25,1],[0,1],[0,0.75],[0,0.5],[0,0.25]];outlineConnect=0;gradientColor=none;html=1;whiteSpace=wrap;fontSize=12;fontStyle=0;container=1;pointerEvents=0;collapsible=0;recursiveResize=0;shape=mxgraph.aws4.group;grIcon=mxgraph.aws4.group_vpc2;strokeColor=#8C4FFF;fillColor=none;verticalAlign=top;align=left;spacingLeft=30;fontColor=#AAB7B8;dashed=0;" vertex="1" parent="WIZIczAgmzSDIAD61xHs-3">
          <mxGeometry x="40" y="40" width="658" height="440" as="geometry" />
        </mxCell>
        <mxCell id="WIZIczAgmzSDIAD61xHs-6" value="AZ us-east-2a" style="fillColor=none;strokeColor=#147EBA;dashed=1;verticalAlign=top;fontStyle=0;fontColor=#147EBA;whiteSpace=wrap;html=1;" vertex="1" parent="WIZIczAgmzSDIAD61xHs-4">
          <mxGeometry x="60" y="40" width="260" height="360" as="geometry" />
        </mxCell>
        <mxCell id="WIZIczAgmzSDIAD61xHs-7" value="public-subnet-1" style="points=[[0,0],[0.25,0],[0.5,0],[0.75,0],[1,0],[1,0.25],[1,0.5],[1,0.75],[1,1],[0.75,1],[0.5,1],[0.25,1],[0,1],[0,0.75],[0,0.5],[0,0.25]];outlineConnect=0;gradientColor=none;html=1;whiteSpace=wrap;fontSize=12;fontStyle=0;container=1;pointerEvents=0;collapsible=0;recursiveResize=0;shape=mxgraph.aws4.group;grIcon=mxgraph.aws4.group_security_group;grStroke=0;strokeColor=#7AA116;fillColor=#F2F6E8;verticalAlign=top;align=left;spacingLeft=30;fontColor=#248814;dashed=0;" vertex="1" parent="WIZIczAgmzSDIAD61xHs-4">
          <mxGeometry x="130" y="90" width="130" height="130" as="geometry" />
        </mxCell>
        <mxCell id="WIZIczAgmzSDIAD61xHs-8" value="private-subnet-1" style="points=[[0,0],[0.25,0],[0.5,0],[0.75,0],[1,0],[1,0.25],[1,0.5],[1,0.75],[1,1],[0.75,1],[0.5,1],[0.25,1],[0,1],[0,0.75],[0,0.5],[0,0.25]];outlineConnect=0;gradientColor=none;html=1;fontSize=12;fontStyle=0;container=1;pointerEvents=0;collapsible=0;recursiveResize=0;shape=mxgraph.aws4.group;grIcon=mxgraph.aws4.group_security_group;grStroke=0;strokeColor=#00A4A6;fillColor=#E6F6F7;verticalAlign=top;align=left;spacingLeft=30;fontColor=#147EBA;dashed=0;whiteSpace=wrap;" vertex="1" parent="WIZIczAgmzSDIAD61xHs-4">
          <mxGeometry x="130" y="240" width="130" height="130" as="geometry" />
        </mxCell>
        <mxCell id="WIZIczAgmzSDIAD61xHs-12" value="IGW" style="sketch=0;outlineConnect=0;fontColor=#232F3E;gradientColor=none;fillColor=#8C4FFF;strokeColor=none;dashed=0;verticalLabelPosition=bottom;verticalAlign=top;align=center;html=1;fontSize=12;fontStyle=0;aspect=fixed;pointerEvents=1;shape=mxgraph.aws4.internet_gateway;" vertex="1" parent="WIZIczAgmzSDIAD61xHs-4">
          <mxGeometry x="-40" y="160" width="78" height="78" as="geometry" />
        </mxCell>
        <mxCell id="WIZIczAgmzSDIAD61xHs-13" value="nat-gateway-1" style="sketch=0;outlineConnect=0;fontColor=#232F3E;gradientColor=none;fillColor=#8C4FFF;strokeColor=none;dashed=0;verticalLabelPosition=bottom;verticalAlign=top;align=center;html=1;fontSize=12;fontStyle=0;aspect=fixed;pointerEvents=1;shape=mxgraph.aws4.nat_gateway;" vertex="1" parent="WIZIczAgmzSDIAD61xHs-4">
          <mxGeometry x="156" y="116" width="78" height="78" as="geometry" />
        </mxCell>
        <mxCell id="WIZIczAgmzSDIAD61xHs-15" value="AZ us-east-2b" style="fillColor=none;strokeColor=#147EBA;dashed=1;verticalAlign=top;fontStyle=0;fontColor=#147EBA;whiteSpace=wrap;html=1;" vertex="1" parent="WIZIczAgmzSDIAD61xHs-4">
          <mxGeometry x="340" y="40" width="260" height="360" as="geometry" />
        </mxCell>
        <mxCell id="WIZIczAgmzSDIAD61xHs-16" value="public-subnet-2" style="points=[[0,0],[0.25,0],[0.5,0],[0.75,0],[1,0],[1,0.25],[1,0.5],[1,0.75],[1,1],[0.75,1],[0.5,1],[0.25,1],[0,1],[0,0.75],[0,0.5],[0,0.25]];outlineConnect=0;gradientColor=none;html=1;whiteSpace=wrap;fontSize=12;fontStyle=0;container=1;pointerEvents=0;collapsible=0;recursiveResize=0;shape=mxgraph.aws4.group;grIcon=mxgraph.aws4.group_security_group;grStroke=0;strokeColor=#7AA116;fillColor=#F2F6E8;verticalAlign=top;align=left;spacingLeft=30;fontColor=#248814;dashed=0;" vertex="1" parent="WIZIczAgmzSDIAD61xHs-4">
          <mxGeometry x="410" y="90" width="130" height="130" as="geometry" />
        </mxCell>
        <mxCell id="WIZIczAgmzSDIAD61xHs-17" value="private-subnet-2" style="points=[[0,0],[0.25,0],[0.5,0],[0.75,0],[1,0],[1,0.25],[1,0.5],[1,0.75],[1,1],[0.75,1],[0.5,1],[0.25,1],[0,1],[0,0.75],[0,0.5],[0,0.25]];outlineConnect=0;gradientColor=none;html=1;fontSize=12;fontStyle=0;container=1;pointerEvents=0;collapsible=0;recursiveResize=0;shape=mxgraph.aws4.group;grIcon=mxgraph.aws4.group_security_group;grStroke=0;strokeColor=#00A4A6;fillColor=#E6F6F7;verticalAlign=top;align=left;spacingLeft=30;fontColor=#147EBA;dashed=0;whiteSpace=wrap;" vertex="1" parent="WIZIczAgmzSDIAD61xHs-4">
          <mxGeometry x="410" y="240" width="130" height="130" as="geometry" />
        </mxCell>
        <mxCell id="WIZIczAgmzSDIAD61xHs-18" value="nat-gateway-2" style="sketch=0;outlineConnect=0;fontColor=#232F3E;gradientColor=none;fillColor=#8C4FFF;strokeColor=none;dashed=0;verticalLabelPosition=bottom;verticalAlign=top;align=center;html=1;fontSize=12;fontStyle=0;aspect=fixed;pointerEvents=1;shape=mxgraph.aws4.nat_gateway;" vertex="1" parent="WIZIczAgmzSDIAD61xHs-4">
          <mxGeometry x="436" y="116" width="78" height="78" as="geometry" />
        </mxCell>
        <mxCell id="WIZIczAgmzSDIAD61xHs-9" value="vpc-flow-log" style="sketch=0;outlineConnect=0;fontColor=#232F3E;gradientColor=none;fillColor=#8C4FFF;strokeColor=none;dashed=0;verticalLabelPosition=bottom;verticalAlign=top;align=center;html=1;fontSize=12;fontStyle=0;aspect=fixed;pointerEvents=1;shape=mxgraph.aws4.flow_logs;" vertex="1" parent="WIZIczAgmzSDIAD61xHs-3">
          <mxGeometry x="660" y="200" width="78" height="78" as="geometry" />
        </mxCell>
        <mxCell id="WIZIczAgmzSDIAD61xHs-10" value="flow-log-group" style="sketch=0;points=[[0,0,0],[0.25,0,0],[0.5,0,0],[0.75,0,0],[1,0,0],[0,1,0],[0.25,1,0],[0.5,1,0],[0.75,1,0],[1,1,0],[0,0.25,0],[0,0.5,0],[0,0.75,0],[1,0.25,0],[1,0.5,0],[1,0.75,0]];points=[[0,0,0],[0.25,0,0],[0.5,0,0],[0.75,0,0],[1,0,0],[0,1,0],[0.25,1,0],[0.5,1,0],[0.75,1,0],[1,1,0],[0,0.25,0],[0,0.5,0],[0,0.75,0],[1,0.25,0],[1,0.5,0],[1,0.75,0]];outlineConnect=0;fontColor=#232F3E;fillColor=#E7157B;strokeColor=#ffffff;dashed=0;verticalLabelPosition=bottom;verticalAlign=top;align=center;html=1;fontSize=12;fontStyle=0;aspect=fixed;shape=mxgraph.aws4.resourceIcon;resIcon=mxgraph.aws4.cloudwatch_2;" vertex="1" parent="1">
          <mxGeometry x="975" y="354" width="78" height="78" as="geometry" />
        </mxCell>
        <mxCell id="WIZIczAgmzSDIAD61xHs-11" style="edgeStyle=orthogonalEdgeStyle;rounded=0;orthogonalLoop=1;jettySize=auto;html=1;" edge="1" parent="1" source="WIZIczAgmzSDIAD61xHs-9" target="WIZIczAgmzSDIAD61xHs-10">
          <mxGeometry relative="1" as="geometry" />
        </mxCell>
        <mxCell id="WIZIczAgmzSDIAD61xHs-19" value="&lt;h1&gt;Networking Components&lt;/h1&gt;" style="text;html=1;align=center;verticalAlign=middle;resizable=0;points=[];autosize=1;strokeColor=none;fillColor=none;" vertex="1" parent="1">
          <mxGeometry x="430" y="18" width="310" height="70" as="geometry" />
        </mxCell>
      </root>
    </mxGraphModel>
  </diagram>
</mxfile>
